<?xml version="1.0" standalone="no"?>
<!DOCTYPE svg PUBLIC "-//W3C//DTD SVG 20010904//EN"
 "http://www.w3.org/TR/2001/REC-SVG-20010904/DTD/svg10.dtd">
<svg version="1.0" xmlns="http://www.w3.org/2000/svg"
 width="180.000000pt" height="180.000000pt" viewBox="0 0 180.000000 180.000000"
 preserveAspectRatio="xMidYMid meet">
<metadata>
Created by potrace 1.16, written by Peter Selinger 2001-2019
</metadata>
<g transform="translate(0.000000,180.000000) scale(0.100000,-0.100000)"
fill="#000000" stroke="none">
<path d="M0 900 l0 -900 900 0 900 0 0 900 0 900 -900 0 -900 0 0 -900z m405
190 c0 -20 -6 -26 -28 -28 -18 -2 -29 2 -33 12 -11 28 4 48 33 44 22 -2 28 -8
28 -28z m809 15 c9 -26 -5 -45 -34 -45 -16 0 -30 7 -34 15 -9 26 5 45 34 45
16 0 30 -7 34 -15z m-522 -115 c29 -30 30 -33 26 -111 -3 -70 -6 -83 -27 -100
-29 -23 -78 -25 -103 -2 -17 15 -18 14 -18 -40 0 -57 0 -57 -30 -57 l-30 0 0
165 0 165 30 0 c22 0 30 -5 30 -17 0 -11 3 -14 8 -7 10 16 44 33 65 34 10 0
32 -14 49 -30z m760 16 c11 -12 15 -12 30 1 24 21 66 9 78 -23 6 -14 10 -70
10 -125 0 -99 0 -99 -25 -99 -25 0 -25 0 -25 98 0 102 -10 133 -37 111 -9 -8
-13 -40 -13 -110 0 -92 -1 -99 -20 -99 -19 0 -20 7 -20 98 0 102 -10 133 -37
111 -9 -8 -13 -40 -13 -110 0 -99 0 -99 -25 -99 l-25 0 0 125 0 125 25 0 c14
0 25 -5 25 -11 0 -6 7 -3 16 5 19 20 39 20 56 2z m-1044 -137 c-3 -140 -3
-141 -31 -165 -22 -19 -39 -24 -83 -24 -51 0 -54 1 -54 25 0 23 4 25 43 25 24
0 48 5 55 12 8 8 12 48 12 115 l0 103 -55 0 c-52 0 -55 1 -55 25 0 25 1 25 86
25 l86 0 -4 -141z m802 41 l0 -100 40 0 c36 0 40 -2 40 -25 l0 -25 -110 0
c-110 0 -110 0 -110 24 0 22 5 25 41 28 l41 3 2 73 1 72 -37 0 c-34 0 -38 3
-38 25 0 24 2 25 65 25 l65 0 0 -100z"/>
<path d="M582 958 c-18 -18 -15 -123 4 -142 35 -35 74 -8 81 57 4 34 1 54 -11
72 -18 27 -54 33 -74 13z"/>
</g>
</svg>
